<?xml version="1.0" encoding="utf-8"?>
<!-- Generator: Adobe Illustrator 17.0.0, SVG Export Plug-In . SVG Version: 6.00 Build 0)  -->
<!DOCTYPE svg PUBLIC "-//W3C//DTD SVG 1.1//EN" "http://www.w3.org/Graphics/SVG/1.1/DTD/svg11.dtd">
<svg version="1.1" id="Layer_1" xmlns="http://www.w3.org/2000/svg" xmlns:xlink="http://www.w3.org/1999/xlink" x="0px" y="0px"
	 width="106px" height="38px" viewBox="0 0 106 38" enable-background="new 0 0 106 38" xml:space="preserve">
<path fill="#FFFFFF" d="M49.178,12.651h-6.525l3.139-7.602L49.178,12.651z M41.459,15.324h8.955l1.422,3.161
	c0.944-0.194,1.89-0.385,2.832-0.567L46.875,0.438h-2.113l-9.014,21.106c1.072-0.139,2.171-0.305,3.299-0.498L41.459,15.324z"/>
<path fill="#FFFFFF" d="M67.771,3.23h3.756c1.443,0,2.49,0.055,3.141,0.166c0.651,0.11,1.339,0.335,2.064,0.675
	c0.725,0.341,1.37,0.777,1.93,1.308c1.523,1.422,2.283,3.259,2.283,5.513c0,2.294-0.739,4.189-2.22,5.691
	c1.129,0.123,2.269,0.278,3.415,0.465c0.436-0.61,0.808-1.261,1.104-1.965c0.54-1.281,0.811-2.623,0.811-4.027
	c0-1.962-0.49-3.776-1.473-5.437c-0.98-1.663-2.302-2.922-3.966-3.778c-1.662-0.857-3.921-1.285-6.775-1.285h-7.076v15.801
	c1.021-0.099,2.023-0.168,3.004-0.206C67.771,16.15,67.771,3.23,67.771,3.23z"/>
<path fill="#FFFFFF" d="M97.001,0.557h-3.004v19.667c0.996,0.381,1.997,0.799,3.004,1.25V0.557z"/>
<polygon fill="#FFFFFF" points="29.048,0.557 23.323,15.024 17.474,0.557 14.633,0.557 8.811,15.024 3.026,0.557 0,0.557 
	8.459,21.634 9.103,21.634 16.037,4.568 22.78,21.342 22.899,21.634 23.561,21.634 23.62,21.481 32.044,0.557 "/>
<path fill="#FFFFFF" d="M46.358,27.496v0.885c-1.201-0.682-2.397-1.022-3.593-1.022c-1.282,0-2.35,0.424-3.202,1.276
	c-0.852,0.853-1.28,1.92-1.28,3.204c0,1.281,0.422,2.35,1.265,3.197c0.841,0.85,1.985,1.275,3.433,1.275
	c1.046,0,1.973-0.209,2.78-0.626v-2.737H43.62v-0.653h2.934v3.884c-1.197,0.573-2.396,0.858-3.603,0.858
	c-1.574,0-2.885-0.5-3.938-1.497c-1.053-0.997-1.58-2.24-1.58-3.731c0-1.482,0.517-2.715,1.551-3.699
	c1.034-0.985,2.332-1.478,3.895-1.478C43.945,26.631,45.107,26.919,46.358,27.496"/>
<path fill="#FFFFFF" d="M52.326,27.415v3.972h1.683c0.857,0,1.511-0.172,1.965-0.52c0.452-0.346,0.677-0.836,0.677-1.47
	c0-0.622-0.229-1.109-0.691-1.461c-0.459-0.347-1.118-0.521-1.98-0.521C53.979,27.415,52.326,27.415,52.326,27.415z M51.541,26.762
	h2.6c1.088,0,1.92,0.235,2.496,0.708c0.577,0.47,0.864,1.108,0.864,1.912c0,1.172-0.642,1.995-1.931,2.468
	c0.334,0.16,0.785,0.677,1.351,1.548l2.297,3.507h-0.929l-1.767-2.78c-0.592-0.929-1.05-1.511-1.38-1.74
	c-0.328-0.23-0.81-0.345-1.443-0.345h-1.371v4.865h-0.785V26.762z"/>
<path fill="#FFFFFF" d="M67.778,36.31c1.261,0,2.327-0.432,3.195-1.296c0.868-0.864,1.303-1.924,1.303-3.176
	c0-1.26-0.434-2.321-1.303-3.183c-0.868-0.867-1.935-1.296-3.195-1.296c-1.268,0-2.342,0.429-3.221,1.296
	c-0.876,0.862-1.316,1.924-1.316,3.183c0,1.253,0.439,2.313,1.316,3.176C65.436,35.877,66.51,36.31,67.778,36.31 M67.747,26.63
	c1.5,0,2.769,0.505,3.813,1.514c1.042,1.01,1.562,2.24,1.562,3.694c0,1.447-0.52,2.675-1.562,3.686
	c-1.044,1.01-2.313,1.513-3.813,1.513c-1.496,0-2.761-0.504-3.799-1.513c-1.038-1.011-1.557-2.238-1.557-3.686
	c0-1.454,0.519-2.684,1.557-3.694C64.986,27.135,66.253,26.63,67.747,26.63"/>
<path fill="#FFFFFF" d="M85.507,26.762h0.784v5.532c0,1.516-0.394,2.684-1.182,3.508s-1.811,1.235-3.066,1.235
	c-1.247,0-2.268-0.408-3.055-1.22c-0.79-0.814-1.184-1.927-1.184-3.341v-5.714h0.79v5.683c0,1.212,0.32,2.158,0.963,2.841
	c0.641,0.682,1.47,1.024,2.486,1.024c1.027,0,1.863-0.346,2.502-1.035c0.64-0.691,0.962-1.668,0.962-2.937V26.762z"/>
<path fill="#FFFFFF" d="M92.156,27.415v4.093h1.888c0.847,0,1.491-0.176,1.929-0.534c0.441-0.359,0.663-0.866,0.663-1.519
	c0-0.623-0.215-1.119-0.645-1.488c-0.432-0.367-1.048-0.552-1.852-0.552L92.156,27.415L92.156,27.415z M91.373,26.762h2.793
	c1.07,0,1.89,0.238,2.458,0.72c0.569,0.478,0.854,1.131,0.854,1.959c0,0.838-0.289,1.502-0.86,1.99
	c-0.575,0.488-1.414,0.731-2.522,0.731h-1.941v4.743h-0.783V26.762z"/>
<path fill="#668E3D" d="M15.968,18.935c0,0,5.115,3.418,15.117,3.418s25.274-5.461,36.778-5.461
	c11.501,0,24.223,1.957,37.793,12.274c0,0-19.315-10.098-36.16-8.874c-16.974,1.23-19.084,3.673-30.815,4.446
	C30.725,25.266,22.688,24.489,15.968,18.935"/>
</svg>
